<?xml version="1.0" encoding="UTF-8" standalone="no"?>
<!-- Created with Inkscape (http://www.inkscape.org/) -->

<svg
   width="500"
   height="500"
   viewBox="0 0 132.29167 132.29167"
   version="1.1"
   id="svg1"
   inkscape:export-filename="odc-try-logo.png"
   inkscape:export-xdpi="96"
   inkscape:export-ydpi="96"
   xmlns:inkscape="http://www.inkscape.org/namespaces/inkscape"
   xmlns:sodipodi="http://sodipodi.sourceforge.net/DTD/sodipodi-0.dtd"
   xmlns="http://www.w3.org/2000/svg"
   xmlns:svg="http://www.w3.org/2000/svg">
  <sodipodi:namedview
     id="namedview1"
     pagecolor="#ffffff"
     bordercolor="#000000"
     borderopacity="0.25"
     inkscape:showpageshadow="true"
     inkscape:pageopacity="0.0"
     inkscape:pagecheckerboard="true"
     inkscape:deskcolor="#d1d1d1"
     inkscape:document-units="mm"
     showborder="false">
    <inkscape:page
       x="0"
       y="0"
       width="132.29167"
       height="132.29167"
       id="page3"
       inkscape:export-filename="logo.svg"
       inkscape:export-xdpi="96"
       inkscape:export-ydpi="96"
       margin="0"
       bleed="0" />
  </sodipodi:namedview>
  <defs
     id="defs1" />
  <g
     inkscape:label="Layer 1"
     inkscape:groupmode="layer"
     id="layer1"
     transform="translate(-284.58334)">
    <path
       id="path3"
       style="fill:#0745b0;fill-opacity:1;stroke:none;stroke-width:0.1;stroke-linejoin:bevel"
       d="m 350.71899,18.693759 c -1.63917,1.12e-4 -3.24709,0.07811 -4.84093,0.240005 -1.59483,0.162048 -3.17325,0.398494 -4.71834,0.714487 -1.54402,0.31606 -3.05639,0.714308 -4.54233,1.176435 -1.48327,0.461209 -2.93711,0.991132 -4.35861,1.592342 -1.41859,0.600002 -2.81155,1.27494 -4.15699,2.005788 -1.34442,0.730356 -2.64425,1.52016 -3.90687,2.373238 -1.26407,0.853951 -2.48345,1.761731 -3.65429,2.72793 -1.17272,0.967832 -2.2928,1.994216 -3.36589,3.067334 -1.07352,1.073499 -2.10994,2.203603 -3.07757,3.376121 -0.96848,1.173502 -1.87601,2.385615 -2.72793,3.646587 -0.85135,1.260123 -1.64136,2.567292 -2.37323,3.914571 -0.72942,1.342691 -1.39706,2.725759 -1.99814,4.146765 -0.60125,1.421543 -1.12856,2.877913 -1.58979,4.361142 -0.4617,1.484796 -0.86017,3.006835 -1.17641,4.552533 -0.31604,1.545787 -0.55282,3.111786 -0.71451,4.705628 -0.1625,1.594468 -0.24244,3.210491 -0.24244,4.85109 0,1.640263 0.0806,3.256509 0.24244,4.85109 0.16205,1.594827 0.39852,3.170763 0.71451,4.715857 0.31604,1.543951 0.71435,3.058985 1.17641,4.544878 0.46123,1.483229 0.98854,2.937114 1.58979,4.358568 0.60218,1.423759 1.26982,2.816272 1.99814,4.156989 0.73031,1.34451 1.52016,2.64425 2.37323,3.90692 0.85395,1.26402 1.76178,2.4836 2.72793,3.65429 0.96506,1.16936 2.00114,2.289483 3.07757,3.365893 1.07641,1.07643 2.19648,2.1125 3.36589,3.07751 1.17075,0.9662 2.39022,1.87398 3.65429,2.72798 1.26262,0.85303 2.56241,1.64284 3.90687,2.37324 1.3454,0.7308 2.7384,1.40574 4.15699,2.00574 1.41631,0.59908 2.87001,1.11927 4.35861,1.58218 0.39554,0.12288 0.83021,0.20995 1.32186,0.34715 1.1021,0.30715 2.14755,0.60981 3.22047,0.82935 1.54494,0.31606 3.12351,0.55269 4.71834,0.71451 1.59449,0.16205 3.21056,0.24001 4.85111,0.24001 1.03554,0 2.01882,-0.0741 3.08522,-0.1428 l 0.0495,-0.009 h 19.79987 L 398.15403,88.823207 V 66.65775 c 0,-0.253815 0.0296,-0.423697 0.0296,-0.510406 0,-1.634466 -0.0875,-3.240999 -0.24988,-4.840861 -0.16249,-1.601318 -0.38914,-3.176583 -0.70428,-4.715857 -0.25679,-1.256317 -0.60443,-2.494594 -0.97484,-3.761431 -0.0938,-0.320492 -0.14817,-0.587401 -0.21196,-0.791102 -0.4632,-1.489742 -0.98309,-2.944769 -1.58213,-4.361142 -0.599,-1.416149 -1.27371,-2.799128 -2.00579,-4.146765 -0.73192,-1.347278 -1.52195,-2.654448 -2.37324,-3.91457 -0.85191,-1.260951 -1.75952,-2.47313 -2.72793,-3.646588 -0.96767,-1.172563 -2.00404,-2.302622 -3.07757,-3.376121 -1.07267,-1.072603 -2.19373,-2.09995 -3.36589,-3.067334 -1.05756,-0.872618 -2.151,-1.689347 -3.27914,-2.467646 l -0.3674,-0.260239 h -0.009 c -1.26214,-0.852675 -2.56042,-1.643173 -3.90434,-2.373238 -1.25766,-0.683085 -2.55145,-1.312855 -3.86862,-1.880738 h -0.009 l -0.26814,-0.124893 h -0.009 c -1.35455,-0.572874 -2.7329,-1.078199 -4.13909,-1.523472 l -0.21196,-0.06871 h -0.009 c -1.48495,-0.462194 -2.99893,-0.860621 -4.5423,-1.176412 -1.54443,-0.315546 -3.12197,-0.55282 -4.7159,-0.71451 -1.59385,-0.162495 -3.20136,-0.239983 -4.84087,-0.239983 z m 0.009,21.884787 c 0.88482,0 1.74929,0.05036 2.6029,0.135413 0.86407,0.08729 1.71625,0.223151 2.54675,0.393077 0.83806,0.171896 1.65517,0.380723 2.44983,0.627801 0.79884,0.248376 1.58607,0.543285 2.35278,0.867626 0.76471,0.323447 1.50312,0.678116 2.22779,1.071776 0.723,0.393077 1.43162,0.823287 2.11294,1.283579 0.68331,0.461209 1.33998,0.957066 1.96747,1.474969 0.63207,0.521731 1.23706,1.06092 1.81437,1.638294 0.57717,0.577171 1.11676,1.182388 1.63834,1.814374 0.51815,0.627846 1.0134,1.284273 1.47497,1.967514 0.45975,0.681071 0.8907,1.389649 1.28358,2.112932 0.38813,0.714644 0.75213,1.454042 1.07943,2.227753 0.32839,0.775792 0.61515,1.565797 0.85999,2.352825 0.24739,0.794705 0.4538,1.611726 0.62521,2.449785 0.17032,0.831077 0.30813,1.67641 0.39556,2.536584 0.0692,0.682256 0.0929,1.388305 0.10721,2.033833 0.002,0.130936 0.0295,0.326893 0.0295,0.579231 0,0.250368 -0.0246,0.461724 -0.0295,0.597181 v 8.826854 15.97978 h -15.81651 -6.97423 c -0.0295,0.009 -0.002,0.0201 -0.19405,0.0295 -0.84191,0.0839 -1.68753,0.13541 -2.55442,0.13541 -0.88477,0 -1.75182,-0.0504 -2.60541,-0.13541 -0.86398,-0.0875 -1.71632,-0.22568 -2.54677,-0.39556 -0.82373,-0.16876 -1.64919,-0.3664 -2.45746,-0.6175 -0.80297,-0.24988 -1.58205,-0.54483 -2.34515,-0.86763 -0.76462,-0.32347 -1.50313,-0.67812 -2.2278,-1.0718 -0.72303,-0.39308 -1.42911,-0.820757 -2.11035,-1.281048 -0.68325,-0.461232 -1.34249,-0.959685 -1.97009,-1.477544 -0.62527,-0.51609 -1.23933,-1.05557 -1.82203,-1.638293 -0.58261,-0.582588 -1.12225,-1.199265 -1.6383,-1.824536 -0.51819,-0.62789 -1.01597,-1.28443 -1.47754,-1.967514 -0.45973,-0.681115 -0.88806,-1.38703 -1.281,-2.110381 -0.39357,-0.724671 -0.74842,-1.463219 -1.07178,-2.227797 -0.32295,-0.763034 -0.61791,-1.542273 -0.86763,-2.345171 -0.25135,-0.808336 -0.44887,-1.636256 -0.61757,-2.459991 -0.17033,-0.831099 -0.30764,-1.67641 -0.39554,-2.536539 -0.0868,-0.858047 -0.13541,-1.730083 -0.13541,-2.613131 0,-0.881996 0.0495,-1.753338 0.13541,-2.613064 0.0868,-0.859546 0.22566,-1.706089 0.39554,-2.536583 0.16944,-0.826757 0.36692,-1.643867 0.61757,-2.449785 0.24838,-0.798734 0.54324,-1.585986 0.86763,-2.352825 0.32345,-0.764579 0.67812,-1.503082 1.07178,-2.227753 0.39307,-0.723104 0.82082,-1.431727 1.281,-2.112932 0.46173,-0.683398 0.95973,-1.339982 1.47754,-1.967514 0.52178,-0.632143 1.06097,-1.237024 1.6383,-1.814375 0.57657,-0.576545 1.18955,-1.1265 1.82203,-1.648522 0.63539,-0.524416 1.29513,-1.008769 1.97009,-1.464741 0.681,-0.459754 1.38703,-0.890658 2.11035,-1.283579 0.72467,-0.39357 1.46318,-0.748441 2.2278,-1.071775 0.75135,-0.31803 1.5335,-0.625383 2.34515,-0.877855 0.80831,-0.251353 1.63368,-0.448877 2.45746,-0.617572 0.83036,-0.169882 1.68545,-0.305675 2.54677,-0.393078 0.85735,-0.08684 1.72223,-0.135189 2.60541,-0.135189 z" />
  </g>
</svg>
